<svg width="35" height="35" viewBox="0 0 35 35" fill="none" xmlns="http://www.w3.org/2000/svg">
<path id="Vector" d="M27.6316 17.5C27.6316 18.0066 27.2171 18.4211 26.7105 18.4211H18.4211V26.7105C18.4211 27.2171 18.0066 27.6316 17.5 27.6316C16.9934 27.6316 16.5789 27.2171 16.5789 26.7105V18.4211H8.28947C7.78289 18.4211 7.36842 18.0066 7.36842 17.5C7.36842 16.9934 7.78289 16.5789 8.28947 16.5789H16.5789V8.28947C16.5789 7.78289 16.9934 7.36842 17.5 7.36842C18.0066 7.36842 18.4211 7.78289 18.4211 8.28947V16.5789H26.7105C27.2171 16.5789 27.6316 16.9934 27.6316 17.5ZM35 17.5C35 27.1711 27.1711 35 17.5 35C7.82895 35 0 27.1711 0 17.5C0 7.82895 7.82895 0 17.5 0C27.1711 0 35 7.82895 35 17.5ZM33.1579 17.5C33.1579 8.84211 26.1579 1.84211 17.5 1.84211C8.84211 1.84211 1.84211 8.84211 1.84211 17.5C1.84211 26.1579 8.84211 33.1579 17.5 33.1579C26.1579 33.1579 33.1579 26.1579 33.1579 17.5Z" fill="black"/>
</svg>
