<svg width="46" height="45" viewBox="0 0 46 45" fill="none" xmlns="http://www.w3.org/2000/svg">
<g id="Group 18">
<g id="Group 18_2">
<circle id="Oval 2 Copy" cx="22.5488" cy="22.5" r="22.5" fill="url(#paint0_linear_122_3490)"/>
<g id="&#229;&#142;&#159;&#231;&#137;&#136;test">
<g id="Group 2">
<g id="4">
<path id="Path 6" d="M15.4039 30.7309C13.8015 29.5502 12.0638 28.2735 10.3934 27.0495C8.48272 25.6496 10.3934 22.8553 12.6477 24.4296C13.6053 25.0984 14.4008 25.6496 14.858 25.9607C16.3908 27.004 18.2874 27.6331 20.0872 26.0328C21.3354 24.9228 27.4215 19.5395 30.5674 16.7539C30.8712 16.485 31.4226 15.9538 33.023 14.3534C34.8035 12.5729 38.0218 14.7857 35.7385 17.0689C34.5416 18.2658 33.9399 18.6647 33.6035 18.9817C31.3894 21.0682 25.5622 26.1104 24.3645 27.1537C23.4005 27.9934 21.1137 30.0354 20.0872 30.7309C19.0606 31.4263 17.9145 32.5808 15.4039 30.7309Z" fill="white"/>
<path id="Combined Shape" d="M29.5312 31.0345C21.8396 30.5217 21.2638 19.643 15.325 19.643C12.6202 19.643 11.5225 20.4592 10.8228 21.1874C9.89717 22.1506 7.18636 20.8442 8.74483 18.785C9.89717 17.2624 12.5612 16.3826 15.325 16.3826C22.8129 16.3826 25.3753 27.5431 29.5312 27.5431C34.5743 27.5431 33.4502 24.4397 34.1864 23.2759C34.9226 22.1121 37.7828 22.7248 37.2898 24.8276C36.9326 26.3517 35.3502 31.4224 29.5312 31.0345Z" fill="white"/>
</g>
<path id="Path 2" d="M13.8001 19.0065V25.7199L18.2577 28.6463L21.9153 27.2692L30.4498 28.8184L32.2625 27.5431V18.3179C32.2625 18.3179 23.3087 24.5149 23.1345 24.5149C22.9603 24.5149 18.9543 19.1786 18.9543 19.1786L13.626 19.0065" fill="white"/>
<path id="Rectangle 2" d="M15.0117 20.6694C15.0117 20.2868 15.3219 19.9767 15.7045 19.9767C16.087 19.9767 16.3972 20.2868 16.3972 20.6694V25.3662C16.3972 25.7488 16.087 26.0589 15.7045 26.0589C15.3219 26.0589 15.0117 25.7488 15.0117 25.3662V20.6694Z" fill="url(#paint1_linear_122_3490)"/>
<path id="Rectangle 2_2" d="M17.5049 22.3282C17.5049 21.9456 17.815 21.6354 18.1976 21.6354C18.5802 21.6354 18.8903 21.9456 18.8903 22.3282V27.025C18.8903 27.4076 18.5802 27.7177 18.1976 27.7177C17.815 27.7177 17.5049 27.4076 17.5049 27.025V22.3282Z" fill="url(#paint2_linear_122_3490)"/>
<path id="Rectangle 2_3" d="M27.2041 23.5549C27.2041 23.411 27.3208 23.2943 27.4647 23.2943C28.0903 23.2943 28.5975 23.8015 28.5975 24.4271V26.7157C28.5975 27.0326 28.3406 27.2894 28.0237 27.2894C27.5711 27.2894 27.2041 26.9225 27.2041 26.4698V23.5549Z" fill="url(#paint3_linear_122_3490)"/>
<path id="Rectangle 2_4" d="M29.6973 22.0558C29.6973 21.671 30.0092 21.3591 30.394 21.3591C30.7787 21.3591 31.0906 21.671 31.0906 22.0558V25.9191C31.0906 26.3039 30.7787 26.6158 30.394 26.6158C30.0092 26.6158 29.6973 26.3039 29.6973 25.9191V22.0558Z" fill="url(#paint4_linear_122_3490)"/>
<path id="Rectangle 2_5" d="M24.9074 20.7721C25.1697 21.0501 25.1541 21.4858 24.8726 21.7453L21.3046 25.0339C21.0231 25.2934 20.5823 25.2784 20.32 25.0003C20.0577 24.7223 20.0733 24.2866 20.3548 24.0271L23.9228 20.7385C24.2043 20.479 24.6451 20.494 24.9074 20.7721Z" fill="url(#paint5_linear_122_3490)"/>
<path id="Rectangle 2_6" d="M25.4845 27.0926C25.7368 27.3796 25.706 27.8145 25.4155 28.0641L21.7343 31.227C21.4439 31.4765 21.0038 31.4462 20.7514 31.1593C20.4991 30.8723 20.5299 30.4374 20.8204 30.1878L24.5016 27.0249C24.7921 26.7754 25.2321 26.8057 25.4845 27.0926Z" fill="url(#paint6_linear_122_3490)"/>
</g>
</g>
</g>
</g>
<defs>
<linearGradient id="paint0_linear_122_3490" x1="-13.0699" y1="19.5035" x2="21.0205" y2="58.1467" gradientUnits="userSpaceOnUse">
<stop stop-color="#FFB226"/>
<stop offset="1" stop-color="#A900FF"/>
</linearGradient>
<linearGradient id="paint1_linear_122_3490" x1="11.054" y1="28.1952" x2="19.8636" y2="29.6676" gradientUnits="userSpaceOnUse">
<stop stop-color="#D75E9F"/>
<stop offset="1" stop-color="#BC31CD"/>
</linearGradient>
<linearGradient id="paint2_linear_122_3490" x1="13.5472" y1="29.854" x2="22.3568" y2="31.3264" gradientUnits="userSpaceOnUse">
<stop stop-color="#D75E9F"/>
<stop offset="1" stop-color="#BC31CD"/>
</linearGradient>
<linearGradient id="paint3_linear_122_3490" x1="23.2238" y1="28.6926" x2="31.7714" y2="30.88" gradientUnits="userSpaceOnUse">
<stop stop-color="#D75E9F"/>
<stop offset="1" stop-color="#BC31CD"/>
</linearGradient>
<linearGradient id="paint4_linear_122_3490" x1="25.7169" y1="28.4621" x2="34.4924" y2="30.1688" gradientUnits="userSpaceOnUse">
<stop stop-color="#D75E9F"/>
<stop offset="1" stop-color="#BC31CD"/>
</linearGradient>
<linearGradient id="paint5_linear_122_3490" x1="5.72753" y1="27.3422" x2="26.1107" y2="42.902" gradientUnits="userSpaceOnUse">
<stop stop-color="#D75E9F"/>
<stop offset="1" stop-color="#BC31CD"/>
</linearGradient>
<linearGradient id="paint6_linear_122_3490" x1="5.9701" y1="33.2354" x2="25.8938" y2="49.4047" gradientUnits="userSpaceOnUse">
<stop stop-color="#D75E9F"/>
<stop offset="1" stop-color="#BC31CD"/>
</linearGradient>
</defs>
</svg>
