<svg width="17" height="17" viewBox="129 0 17 17" fill="none" xmlns="http://www.w3.org/2000/svg">
<g id="Group 130">
<path id="Vector" d="M134.911 4.15799H135.426C135.429 3.02843 136.007 1.98641 136.941 1.42268C137.875 0.859105 139.025 0.859105 139.959 1.42268C140.894 1.98641 141.471 3.02839 141.475 4.15799H142.089C142.569 4.15571 143.035 4.32591 143.41 4.64037C143.784 4.9547 144.045 5.39424 144.148 5.88544L145.949 14.305C146.089 14.9602 145.938 15.6467 145.537 16.1708C145.137 16.6949 144.531 17 143.89 17H133.11C132.469 17 131.863 16.6949 131.463 16.1708C131.062 15.6467 130.911 14.9602 131.051 14.305L132.852 5.88544C132.955 5.3942 133.215 4.9547 133.59 4.64037C133.965 4.32589 134.431 4.15569 134.911 4.15799H134.911ZM138.45 1.71908C137.832 1.71979 137.239 1.97672 136.802 2.43364C136.363 2.89053 136.116 3.51037 136.112 4.15799H140.788C140.784 3.51037 140.537 2.89053 140.099 2.43364C139.661 1.97675 139.068 1.7198 138.45 1.71908H138.45ZM131.999 15.7212C132.269 16.0757 132.678 16.2818 133.11 16.2807H143.89C144.322 16.2807 144.731 16.0747 145.001 15.7212C145.271 15.3677 145.374 14.9047 145.279 14.4626L143.478 6.04299C143.409 5.71156 143.233 5.41502 142.98 5.20296C142.727 4.99089 142.413 4.8761 142.089 4.87752H141.475V6.608C141.475 6.80654 141.322 6.96762 141.132 6.96762C140.943 6.96762 140.789 6.80654 140.789 6.608V4.87752H136.112V6.608C136.112 6.80654 135.958 6.96762 135.769 6.96762C135.579 6.96762 135.426 6.80654 135.426 6.608V4.87752H134.912C134.588 4.8761 134.273 4.99089 134.021 5.20296C133.768 5.41503 133.592 5.71156 133.523 6.04299L131.722 14.4626C131.626 14.9047 131.728 15.3681 132 15.7212H131.999Z" fill="white"/>
</g>
</svg>
