<svg width="36" height="39" viewBox="0 0 36 39" fill="none" xmlns="http://www.w3.org/2000/svg">
<path id="Vector" d="M33.7543 8.06527L19.8165 0.484271C19.2343 0.166475 18.5822 0 17.9195 0C17.2568 0 16.6047 0.166475 16.0225 0.484271L2.08469 8.06527C1.45394 8.40865 0.927258 8.91682 0.560307 9.53607C0.193355 10.1553 -0.000233315 10.8626 2.11027e-07 11.5833V26.4213C-0.000136171 27.142 0.193602 27.8494 0.560734 28.4686C0.927867 29.0879 1.45475 29.596 2.08569 29.9393L16.0235 37.5203C16.6057 37.8382 17.2578 38.0048 17.9205 38.0048C18.5832 38.0048 19.2353 37.8382 19.8175 37.5203L33.7553 29.9393C34.3861 29.5959 34.9127 29.0877 35.2797 28.4685C35.6466 27.8492 35.8402 27.1419 35.84 26.4213V11.5833C35.8401 10.8625 35.6464 10.1551 35.2793 9.53589C34.9121 8.91663 34.3853 8.40852 33.7543 8.06527ZM16.9722 2.24327C17.2626 2.08512 17.5877 2.00228 17.918 2.00228C18.2483 2.00228 18.5734 2.08512 18.8638 2.24327L32.6025 9.71327L26.2478 13.3583L11.8899 5.00727L16.9722 2.24327ZM17.92 18.1353L3.23854 9.71327L9.83808 6.12427L24.2468 14.5023L17.92 18.1353ZM3.03445 28.1803C2.71889 28.0087 2.45535 27.7547 2.27169 27.445C2.08804 27.1354 1.99109 26.7817 1.99111 26.4213V11.5833C1.99716 11.4952 2.00913 11.4077 2.02695 11.3213L16.9244 19.8673V35.7353L3.03445 28.1803ZM33.8489 26.4213C33.8489 26.7817 33.752 27.1354 33.5683 27.445C33.3847 27.7547 33.1211 28.0087 32.8055 28.1803L18.9156 35.7353V19.8673L33.813 11.3223C33.8309 11.4087 33.8428 11.4962 33.8489 11.5843V26.4213Z" fill="white"/>
</svg>
