<svg width="54" height="55" viewBox="0 0 54 55" fill="none" xmlns="http://www.w3.org/2000/svg">
<g id="Frame" clip-path="url(#clip0_99_561)">
<path id="Vector" d="M42.7168 17.1913L28.8311 9.70537C28.2686 9.40207 27.6395 9.24329 27.0005 9.24329C26.3614 9.24329 25.7324 9.40207 25.1699 9.70537L11.2842 17.1913C10.6712 17.5216 10.1591 18.0117 9.80214 18.6096C9.44521 19.2075 9.25678 19.8908 9.25684 20.5871V27.1474H10.7997V20.5871C10.8017 20.3589 10.8376 20.1322 10.9062 19.9145L26.2283 28.6239V44.8486C26.1162 44.8148 26.0068 44.7725 25.9012 44.722L12.0155 37.2361C11.6479 37.0379 11.3409 36.7439 11.1268 36.3854C10.9128 36.0269 10.7998 35.6171 10.7997 35.1995V31.7759H9.25684V35.1995C9.2559 35.8956 9.44382 36.5789 9.80056 37.1767C10.1573 37.7744 10.6695 38.2642 11.2826 38.5938L25.1683 46.0798C25.7308 46.3831 26.3599 46.5418 26.9989 46.5418C27.638 46.5418 28.267 46.3831 28.8295 46.0798L42.7152 38.5938C43.328 38.2636 43.8399 37.7738 44.1969 37.1762C44.5538 36.5786 44.7423 35.8956 44.7426 35.1995V20.5871C44.7428 19.891 44.5546 19.2077 44.1979 18.6099C43.8413 18.012 43.3295 17.5218 42.7168 17.1913ZM25.8996 11.0646C26.2372 10.8826 26.6147 10.7873 26.9982 10.7873C27.3816 10.7873 27.7591 10.8826 28.0967 11.0646L41.9824 18.5506C42.0456 18.5845 42.0935 18.6354 42.1521 18.6755L35.3481 22.5435L20.4935 13.9806L25.8996 11.0646ZM11.8442 18.674C11.9028 18.6339 11.9522 18.583 12.0155 18.549L18.8982 14.8462L33.7883 23.426L26.9997 27.2831L11.8442 18.674ZM43.1997 35.1995C43.1996 35.6171 43.0866 36.0269 42.8725 36.3854C42.6585 36.7439 42.3515 37.0379 41.9839 37.2361L28.0982 44.7205C27.9926 44.771 27.8832 44.8133 27.7711 44.847V28.6239L43.0932 19.9129C43.1617 20.1307 43.1976 20.3573 43.1997 20.5856V35.1995Z" fill="black"/>
<path id="Vector_2" d="M3.86766 28.6903L6.40721 26.1507C6.54773 26.0052 6.62548 25.8104 6.62372 25.6081C6.62197 25.4058 6.54084 25.2124 6.39781 25.0693C6.25478 24.9263 6.0613 24.8452 5.85903 24.8434C5.65676 24.8417 5.4619 24.9194 5.31641 25.0599L1.45926 28.9171C1.31464 29.0617 1.2334 29.2579 1.2334 29.4625C1.2334 29.667 1.31464 29.8632 1.45926 30.0079L5.31641 33.865C5.38757 33.9387 5.47269 33.9975 5.56681 34.0379C5.66092 34.0783 5.76215 34.0996 5.86458 34.1005C5.96701 34.1014 6.06859 34.0819 6.1634 34.0431C6.2582 34.0043 6.34434 33.947 6.41677 33.8746C6.4892 33.8021 6.54648 33.716 6.58527 33.6212C6.62406 33.5264 6.64357 33.4248 6.64268 33.3224C6.64179 33.22 6.62051 33.1187 6.58008 33.0246C6.53965 32.9305 6.48088 32.8454 6.40721 32.7742L3.86766 30.2331H9.25686V28.6903H3.86766ZM15.8911 30.2331C16.0957 30.2331 16.292 30.1519 16.4366 30.0072C16.5813 29.8625 16.6626 29.6663 16.6626 29.4617C16.6626 29.2571 16.5813 29.0609 16.4366 28.9162C16.292 28.7715 16.0957 28.6903 15.8911 28.6903H10.7997V30.2331H15.8911ZM9.25686 28.6903H10.7997V30.2331H9.25686V28.6903Z" fill="black"/>
</g>
<defs>
<clipPath id="clip0_99_561">
<rect width="54" height="54" fill="white" transform="translate(0 0.918823)"/>
</clipPath>
</defs>
</svg>
