<svg width="37" height="39" viewBox="0 0 37 39" fill="none" xmlns="http://www.w3.org/2000/svg">
<path id="Vector" d="M34.2543 8.7264L20.3165 1.1454C19.7343 0.827608 19.0822 0.661133 18.4195 0.661133C17.7568 0.661133 17.1047 0.827608 16.5225 1.1454L2.58469 8.7264C1.95394 9.06979 1.42726 9.57795 1.06031 10.1972C0.693355 10.8164 0.499767 11.5238 0.5 12.2444V27.0824C0.499864 27.8031 0.693602 28.5105 1.06073 29.1298C1.42787 29.749 1.95475 30.2571 2.58569 30.6004L16.5235 38.1814C17.1057 38.4994 17.7578 38.6659 18.4205 38.6659C19.0832 38.6659 19.7353 38.4994 20.3175 38.1814L34.2553 30.6004C34.8861 30.257 35.4127 29.7488 35.7797 29.1296C36.1466 28.5104 36.3402 27.803 36.34 27.0824V12.2444C36.3401 11.5237 36.1464 10.8163 35.7793 10.197C35.4121 9.57777 34.8853 9.06966 34.2543 8.7264ZM17.4722 2.9044C17.7626 2.74625 18.0877 2.66342 18.418 2.66342C18.7483 2.66342 19.0734 2.74625 19.3638 2.9044L33.1025 10.3744L26.7478 14.0194L12.3899 5.6684L17.4722 2.9044ZM18.42 18.7964L3.73854 10.3744L10.3381 6.7854L24.7468 15.1634L18.42 18.7964ZM3.53445 28.8414C3.21889 28.6698 2.95535 28.4158 2.77169 28.1062C2.58804 27.7965 2.49109 27.4428 2.49111 27.0824V12.2444C2.49716 12.1564 2.50913 12.0688 2.52695 11.9824L17.4244 20.5284V36.3964L3.53445 28.8414ZM34.3489 27.0824C34.3489 27.4428 34.252 27.7965 34.0683 28.1062C33.8847 28.4158 33.6211 28.6698 33.3055 28.8414L19.4156 36.3964V20.5284L34.313 11.9834C34.3309 12.0698 34.3428 12.1574 34.3489 12.2454V27.0824Z" fill="#0066CC"/>
</svg>
