<svg width="36" height="39" viewBox="0 0 36 39" fill="none" xmlns="http://www.w3.org/2000/svg">
<path id="Vector" d="M33.7543 8.98409L19.8165 1.40309C19.2343 1.0853 18.5822 0.918823 17.9195 0.918823C17.2568 0.918823 16.6047 1.0853 16.0225 1.40309L2.08469 8.98409C1.45394 9.32748 0.927258 9.83564 0.560307 10.4549C0.193355 11.0741 -0.000233315 11.7815 2.11027e-07 12.5021V27.3401C-0.000136171 28.0608 0.193602 28.7682 0.560734 29.3875C0.927867 30.0067 1.45475 30.5148 2.08569 30.8581L16.0235 38.4391C16.6057 38.7571 17.2578 38.9236 17.9205 38.9236C18.5832 38.9236 19.2353 38.7571 19.8175 38.4391L33.7553 30.8581C34.3861 30.5147 34.9127 30.0065 35.2797 29.3873C35.6466 28.768 35.8402 28.0607 35.84 27.3401V12.5021C35.8401 11.7814 35.6464 11.074 35.2793 10.4547C34.9121 9.83546 34.3853 9.32735 33.7543 8.98409ZM16.9722 3.16209C17.2626 3.00394 17.5877 2.92111 17.918 2.92111C18.2483 2.92111 18.5734 3.00394 18.8638 3.16209L32.6025 10.6321L26.2478 14.2771L11.8899 5.92609L16.9722 3.16209ZM17.92 19.0541L3.23854 10.6321L9.83808 7.04309L24.2468 15.4211L17.92 19.0541ZM3.03445 29.0991C2.71889 28.9275 2.45535 28.6735 2.27169 28.3639C2.08804 28.0542 1.99109 27.7005 1.99111 27.3401V12.5021C1.99716 12.414 2.00913 12.3265 2.02695 12.2401L16.9244 20.7861V36.6541L3.03445 29.0991ZM33.8489 27.3401C33.8489 27.7005 33.752 28.0542 33.5683 28.3639C33.3847 28.6735 33.1211 28.9275 32.8055 29.0991L18.9156 36.6541V20.7861L33.813 12.2411C33.8309 12.3275 33.8428 12.415 33.8489 12.5031V27.3401Z" fill="#1D1D1F"/>
</svg>
