<svg width="47" height="40" viewBox="0 0 47 40" fill="none" xmlns="http://www.w3.org/2000/svg">
<g id="Group 70">
<path id="Vector" d="M17.7591 24.353C17.2086 24.398 16.6502 24.426 16.0807 24.426C15.6613 24.426 15.235 24.413 14.8136 24.388L14.143 24.348L13.5846 24.72C11.8739 25.8689 10.0412 26.8251 8.11991 27.571C8.62925 26.8684 9.09293 26.1339 9.50809 25.372L10.4739 23.529L8.59331 22.637C4.52485 20.712 2.0017 17.105 2.0017 13.223C2.0017 7.037 8.47521 2.004 16.431 2.004C24.3377 2.004 30.7732 6.975 30.8532 13.104C31.5154 13.0266 32.1813 12.9855 32.8479 12.981C32.6908 5.781 25.4747 0 16.434 0C7.2882 0.006 0 5.917 0 13.223C0 18.017 3.07762 22.237 7.72957 24.442C7.0041 25.7036 6.18195 26.9072 5.27048 28.042C4.51984 28.983 4.90217 30.042 6.2273 30.042C8.05285 30.042 11.778 28.322 14.6935 26.381C15.1606 26.409 15.6226 26.4227 16.0797 26.422C16.6371 26.422 17.1866 26.4 17.7301 26.36C17.7111 26.1 17.683 25.842 17.683 25.578C17.6846 25.1685 17.71 24.7595 17.7591 24.353Z" fill="white"/>
<path id="Vector_2" d="M46.0399 25.5834C46.0399 19.7254 40.1959 14.9834 32.8637 14.9834C32.8117 14.9834 32.7636 14.9894 32.7086 14.9894C32.0158 14.9973 31.3242 15.0488 30.6378 15.1434C25.003 15.9064 20.6443 19.5084 19.8366 24.0574C19.7423 24.559 19.6924 25.068 19.6875 25.5784C19.6875 25.7614 19.7105 25.9374 19.7205 26.1174C20.0668 31.9564 25.9528 36.1604 33.1449 36.1604C33.5123 36.1604 33.8836 36.1494 34.2569 36.1274C36.5949 37.6834 39.5814 39.0624 41.0457 39.0624C42.1086 39.0624 42.4148 38.2134 41.8133 37.4624C41.0824 36.5521 40.4232 35.5865 39.8416 34.5744C43.5718 32.8074 46.0399 29.4234 46.0399 25.5834ZM38.9839 32.7694L37.1023 33.6614L38.0681 35.5044C38.1902 35.7374 38.3284 35.9764 38.4745 36.2144C37.3954 35.7116 36.3562 35.1276 35.3658 34.4674L34.8074 34.0954L34.1368 34.1354C33.8035 34.1554 33.4722 34.1654 33.1439 34.1654C26.7675 34.1654 21.7683 30.4504 21.6942 25.6894C21.6942 25.6534 21.6872 25.6194 21.6872 25.5844C21.6918 24.879 21.8076 24.1787 22.0305 23.5094C23.0013 20.5094 26.0129 18.1384 29.8662 17.3094C30.6315 17.1454 31.4092 17.0451 32.1911 17.0094C32.4143 16.9994 32.6365 16.9834 32.8627 16.9834C39.0249 16.9834 44.0372 20.8394 44.0372 25.5834C43.9648 27.1369 43.451 28.6376 42.5561 29.91C41.6612 31.1824 40.4222 32.1739 38.9839 32.7684V32.7694Z" fill="white"/>
</g>
</svg>
