<svg width="39" height="39" viewBox="0 0 39 39" fill="none" xmlns="http://www.w3.org/2000/svg">
<g id="Group 72">
<path id="Vector" d="M13.6419 21.9999H11.305C11.0905 21.9999 10.8847 21.9145 10.733 21.7626C10.5813 21.6107 10.4961 21.4047 10.4961 21.1899C10.4961 20.975 10.5813 20.769 10.733 20.6171C10.8847 20.4652 11.0905 20.3798 11.305 20.3798H13.4222C13.4222 20.1398 13.4222 19.8298 13.4222 19.4798C13.4222 19.1298 13.4222 18.9098 13.4222 18.6398H11.305C11.1976 18.6428 11.0908 18.6234 10.9912 18.5829C10.8916 18.5425 10.8015 18.4818 10.7264 18.4048C10.6514 18.3278 10.5931 18.2361 10.5552 18.1354C10.5172 18.0347 10.5005 17.9273 10.5061 17.8198C10.5019 17.7137 10.5196 17.6077 10.5583 17.5088C10.597 17.4098 10.6557 17.3199 10.7307 17.2448C10.8057 17.1696 10.8955 17.1108 10.9944 17.0721C11.0932 17.0334 11.199 17.0156 11.305 17.0198H13.6419C14.5806 12.6198 18.086 10.4598 22.0307 10.4598C22.6282 10.4348 23.2263 10.492 23.8083 10.6298C24.3875 10.8298 24.5873 11.1598 24.5873 11.5698C24.5923 11.692 24.5709 11.8137 24.5247 11.9268C24.4784 12.0399 24.4084 12.1417 24.3193 12.2252C24.2302 12.3087 24.1241 12.372 24.0084 12.4108C23.8926 12.4496 23.7699 12.4629 23.6485 12.4498C23.279 12.4498 22.7497 12.3498 22.0107 12.3498C20.5865 12.2727 19.1802 12.6976 18.0363 13.5508C16.8924 14.4039 16.0832 15.6313 15.7491 17.0198H21.831C21.9362 17.0154 22.0411 17.0332 22.139 17.0721C22.2368 17.111 22.3254 17.1701 22.3989 17.2456C22.4724 17.3211 22.5292 17.4113 22.5656 17.5102C22.6019 17.6091 22.617 17.7147 22.6099 17.8198C22.6168 17.9259 22.6017 18.0323 22.5655 18.1323C22.5294 18.2322 22.4729 18.3236 22.3997 18.4006C22.3266 18.4777 22.2382 18.5387 22.1404 18.5799C22.0425 18.621 21.9371 18.6415 21.831 18.6398H15.4794C15.4794 18.9098 15.4794 19.1898 15.4794 19.4998C15.4586 19.7928 15.4586 20.0869 15.4794 20.3798H21.8509C22.0655 20.3798 22.2712 20.4652 22.4229 20.6171C22.5746 20.769 22.6599 20.975 22.6599 21.1899C22.6599 21.4047 22.5746 21.6107 22.4229 21.7626C22.2712 21.9145 22.0655 21.9999 21.8509 21.9999H15.7491C16.0854 23.3856 16.8959 24.6096 18.0398 25.4591C19.1838 26.3086 20.5888 26.7299 22.0107 26.6499C22.7298 26.6499 23.2391 26.5499 23.6485 26.5499C23.7699 26.5368 23.8926 26.5501 24.0084 26.5889C24.1241 26.6277 24.2302 26.691 24.3193 26.7745C24.4084 26.858 24.4784 26.9598 24.5247 27.0729C24.5709 27.186 24.5923 27.3077 24.5873 27.4299C24.5873 27.8599 24.3276 28.1499 23.8183 28.3299C23.2374 28.4947 22.6339 28.5656 22.0307 28.5399C18.086 28.4999 14.6006 26.3799 13.6419 21.9999Z" fill="white"/>
<path id="Vector_2" d="M19.474 2.2C22.8911 2.2 26.2314 3.21463 29.0726 5.11558C31.9137 7.01652 34.1282 9.71841 35.4358 12.8796C36.7435 16.0407 37.0856 19.5192 36.419 22.8751C35.7523 26.2309 34.1069 29.3135 31.6906 31.7329C29.2744 34.1524 26.196 35.8001 22.8446 36.4676C19.4932 37.1351 16.0194 36.7925 12.8624 35.4831C9.70547 34.1737 7.00718 31.9563 5.10876 29.1114C3.21035 26.2664 2.19708 22.9216 2.19708 19.5C2.20236 14.9134 4.0243 10.5161 7.26321 7.2729C10.5021 4.02967 14.8935 2.20529 19.474 2.2ZM19.474 0C15.6224 0 11.8573 1.14365 8.65483 3.28634C5.45235 5.42903 2.95632 8.47451 1.48238 12.0377C0.00843781 15.6008 -0.377212 19.5216 0.374196 23.3043C1.1256 27.0869 2.98032 30.5615 5.70381 33.2886C8.4273 36.0157 11.8972 37.8729 15.6748 38.6253C19.4524 39.3777 23.368 38.9916 26.9264 37.5156C30.4848 36.0397 33.5262 33.5404 35.666 30.3336C37.8059 27.1269 38.948 23.3567 38.948 19.5C38.948 14.3283 36.8963 9.36838 33.2442 5.71142C29.5921 2.05446 24.6388 0 19.474 0Z" fill="white"/>
</g>
</svg>
