<svg width="29" height="32" viewBox="0 0 29 32" fill="none" xmlns="http://www.w3.org/2000/svg">
<g id="Group 118">
<path id="Vector" d="M26.2615 0.115723H24.5114H3.50999H1.75988C0.709811 0.115723 0.00976562 0.815768 0.00976562 1.86584C0.00976562 2.9159 0.709811 3.61595 1.75988 3.61595V28.2926C1.75988 29.5176 2.45992 30.7427 3.685 31.4428C4.21004 31.7928 4.73507 31.7928 5.26011 31.7928C5.96015 31.7928 6.6602 31.6178 7.18523 31.2677L14.0107 26.7175L20.8361 31.2677C21.8862 31.9678 23.2863 32.1428 24.5114 31.4428C25.7364 30.9177 26.4365 29.6926 26.4365 28.2926V3.61595C27.4866 3.61595 28.1866 2.9159 28.1866 1.86584C28.1866 0.815768 27.3115 0.115723 26.2615 0.115723ZM22.7612 28.2926L15.9358 23.7423C15.4108 23.3922 14.7107 23.2172 14.0107 23.2172C13.3106 23.2172 12.6106 23.3922 12.0855 23.7423L5.26011 28.2926V3.61595H22.7612V28.2926Z" fill="#0066CC"/>
</g>
</svg>
