<svg width="12" height="12" viewBox="0 0 12 12" fill="none" xmlns="http://www.w3.org/2000/svg">
<path id="Vector" d="M6 0C2.6865 0 0 2.6865 0 6C0 9.3135 2.6865 12 6 12C9.3135 12 12 9.3135 12 6C12 2.6865 9.3135 0 6 0ZM5.25 5.25C5.25 5.05109 5.32902 4.86032 5.46967 4.71967C5.61032 4.57902 5.80109 4.5 6 4.5C6.19891 4.5 6.38968 4.57902 6.53033 4.71967C6.67098 4.86032 6.75 5.05109 6.75 5.25V9C6.75 9.19891 6.67098 9.38968 6.53033 9.53033C6.38968 9.67098 6.19891 9.75 6 9.75C5.80109 9.75 5.61032 9.67098 5.46967 9.53033C5.32902 9.38968 5.25 9.19891 5.25 9V5.25ZM6 3.762C5.90148 3.76198 5.80394 3.74255 5.71293 3.70482C5.62192 3.6671 5.53924 3.61182 5.46959 3.54214C5.39995 3.47246 5.34471 3.38975 5.30703 3.29872C5.26935 3.2077 5.24998 3.11014 5.25 3.01163C5.25002 2.91311 5.26945 2.81556 5.30718 2.72456C5.3449 2.63355 5.40018 2.55086 5.46986 2.48122C5.53954 2.41157 5.62225 2.35634 5.71328 2.31866C5.8043 2.28098 5.90186 2.2616 6.00037 2.26163C6.19934 2.26167 6.39013 2.34076 6.53078 2.48148C6.67143 2.62221 6.75042 2.81304 6.75037 3.012C6.75033 3.21096 6.67124 3.40176 6.53052 3.54241C6.38979 3.68306 6.19896 3.76205 6 3.762Z" fill="#3D69E1"/>
</svg>
