<svg width="39" height="39" viewBox="0 0 39 39" fill="none" xmlns="http://www.w3.org/2000/svg">
<g id="Group 71">
<path id="Vector" d="M19.474 2.2C22.8911 2.2 26.2314 3.21463 29.0726 5.11558C31.9137 7.01652 34.1282 9.71841 35.4358 12.8796C36.7435 16.0407 37.0856 19.5192 36.419 22.8751C35.7523 26.2309 34.1069 29.3135 31.6906 31.7329C29.2744 34.1524 26.196 35.8001 22.8446 36.4676C19.4932 37.1351 16.0194 36.7925 12.8624 35.4831C9.70547 34.1737 7.00718 31.9563 5.10876 29.1114C3.21035 26.2664 2.19708 22.9216 2.19708 19.5C2.20236 14.9134 4.0243 10.5161 7.26321 7.2729C10.5021 4.02967 14.8935 2.20529 19.474 2.2ZM19.474 0C15.6224 0 11.8573 1.14365 8.65483 3.28634C5.45235 5.42903 2.95632 8.47451 1.48238 12.0377C0.00843781 15.6008 -0.377212 19.5216 0.374196 23.3043C1.1256 27.0869 2.98032 30.5615 5.70381 33.2886C8.4273 36.0157 11.8972 37.8729 15.6748 38.6253C19.4524 39.3777 23.368 38.9916 26.9264 37.5156C30.4848 36.0397 33.5262 33.5404 35.666 30.3336C37.8059 27.1269 38.948 23.3567 38.948 19.5C38.948 14.3283 36.8963 9.36838 33.2442 5.71142C29.5921 2.05446 24.6388 0 19.474 0Z" fill="white"/>
<path id="Vector_2" d="M27.9773 24.5H11.9987C11.7338 24.5 11.4798 24.3946 11.2925 24.2071C11.1052 24.0196 11 23.7652 11 23.5C11 23.2348 11.1052 22.9804 11.2925 22.7929C11.4798 22.6054 11.7338 22.5 11.9987 22.5H27.9773C28.2422 22.5 28.4962 22.6054 28.6835 22.7929C28.8708 22.9804 28.976 23.2348 28.976 23.5C28.976 23.7652 28.8708 24.0196 28.6835 24.2071C28.4962 24.3946 28.2422 24.5 27.9773 24.5Z" fill="white"/>
<path id="Vector_3" d="M30.9693 16.5H8.99867C8.7338 16.5 8.47979 16.3946 8.2925 16.2071C8.10522 16.0196 8 15.7652 8 15.5C8 15.2348 8.10522 14.9804 8.2925 14.7929C8.47979 14.6054 8.7338 14.5 8.99867 14.5H30.9693C31.2342 14.5 31.4882 14.6054 31.6755 14.7929C31.8628 14.9804 31.968 15.2348 31.968 15.5C31.968 15.7652 31.8628 16.0196 31.6755 16.2071C31.4882 16.3946 31.2342 16.5 30.9693 16.5Z" fill="white"/>
</g>
</svg>
