<svg width="101" height="58" viewBox="0 0 101 58" fill="none" xmlns="http://www.w3.org/2000/svg">
<g id="Group 86">
<path id="Rectangle 40" d="M17.5036 8.93198C18.7681 4.39037 22.9045 1.24829 27.6188 1.24829H71.8538C76.5596 1.24829 80.6907 4.37923 81.9629 8.90985L91.6508 43.4134C93.5312 50.1104 88.4978 56.7518 81.5417 56.7518H18.0123C11.0658 56.7518 6.03385 50.1274 7.89704 43.4355L17.5036 8.93198Z" stroke="white"/>
<path id="Rectangle 41" d="M13.1184 37.8423C14.8023 35.4343 17.5556 34 20.4939 34L79.2395 34C82.0396 34 84.6802 35.3033 86.3833 37.526L89.9092 42.1274C94.4461 48.0483 90.2246 56.6014 82.7653 56.6014H17.2761C9.9968 56.6014 5.72899 48.409 9.90062 42.4437L13.1184 37.8423Z" fill="white"/>
</g>
</svg>
