<svg width="17" height="17" viewBox="64.5 0 17 17" fill="none" xmlns="http://www.w3.org/2000/svg">
<g id="Group">
<path id="Vector_3" fill-rule="evenodd" clip-rule="evenodd" d="M73.2072 1.75797C71.2647 1.75797 69.6899 3.33269 69.6899 5.27535C69.6899 7.21786 71.2647 8.79274 73.2072 8.79274C75.1499 8.79274 76.7246 7.21786 76.7246 5.27535C76.7246 3.33269 75.1499 1.75797 73.2072 1.75797ZM68.9082 5.27535C68.9082 2.901 70.8329 0.976318 73.2072 0.976318C75.5816 0.976318 77.5063 2.90104 77.5063 5.27535C77.5063 7.64959 75.5816 9.57439 73.2072 9.57439C70.833 9.57439 68.9082 7.64967 68.9082 5.27535Z" fill="white"/>
<path id="Vector_4" fill-rule="evenodd" clip-rule="evenodd" d="M73.2073 9.5745C69.1063 9.5745 65.7817 12.8991 65.7817 17.0001H65C65 12.4673 68.6746 8.79297 73.2071 8.79297C77.7399 8.79297 81.4142 12.4674 81.4142 17.0001H80.6327C80.6327 12.8991 77.3081 9.5745 73.2071 9.5745H73.2073Z" fill="white"/>
</g>
</svg>
