<svg width="64" height="64" viewBox="0 0 64 64" fill="none" xmlns="http://www.w3.org/2000/svg">
<path id="Vector" d="M50.4007 2.63911L36.8504 16.1894L38.6771 25.3229L47.8106 27.1496L61.3609 13.5993L61.3622 13.5988C63.0394 17.5579 63.4405 21.9414 62.5098 26.1391C61.579 30.3368 59.3626 34.1399 56.1692 37.019C52.9757 39.8981 48.9641 41.71 44.6927 42.2023C40.4213 42.6947 36.1026 41.8431 32.3379 39.7661L14.227 60.7332C12.7733 62.1852 10.8025 63.0006 8.74785 63C6.69317 62.9994 4.72281 62.1829 3.26994 60.7301C1.81706 59.2772 1.00059 57.3068 1 55.2522C0.999416 53.1975 1.81477 51.2267 3.26682 49.773L24.2344 31.6619C22.1574 27.8972 21.3053 23.5787 21.7977 19.3073C22.29 15.0359 24.1019 11.0243 26.981 7.83085C29.8601 4.6374 33.6632 2.42103 37.8609 1.49025C42.0586 0.559474 46.4421 0.960599 50.4012 2.63779L50.4007 2.63911Z" stroke="white" stroke-width="2" stroke-linecap="round" stroke-linejoin="round"/>
</svg>
