<svg width="17" height="17" viewBox="0 0 17 17" fill="none" xmlns="http://www.w3.org/2000/svg">
<g id="Group 130">
<path id="Vector_2" d="M10.3259 11.9C8.60413 13.4038 6.0296 13.8776 3.86383 12.9918C1.2524 11.9239 -0.411096 8.91984 0.0885152 6.12485C0.588422 3.32792 3.1883 1.06556 6.09555 1.00107C6.14906 1.00018 6.20256 0.999888 6.25621 1.00004C9.11352 1.02717 11.8072 3.2326 12.3365 6.0866C12.6913 7.99954 12.0795 10.0662 10.7523 11.4876L15.908 16.5012C16.0186 16.618 15.9994 16.6569 15.9977 16.7219C15.9914 16.948 15.6849 17.0966 15.4946 16.9264L10.3259 11.9ZM6.17959 1.59301C3.62922 1.61718 1.23609 3.54584 0.705655 6.0568C0.315274 7.90526 0.930191 9.93576 2.28244 11.2562C3.83537 12.7724 6.29341 13.2815 8.34373 12.4429C10.7155 11.4731 12.2241 8.73172 11.7536 6.19467C11.2871 3.67941 8.95835 1.65246 6.32513 1.5939C6.27651 1.59316 6.22805 1.59287 6.17959 1.59301Z" fill="white"/>
</g>
</svg>
