<svg width="55" height="55" viewBox="0 0 55 55" fill="none" xmlns="http://www.w3.org/2000/svg">
<g id="Frame" clip-path="url(#clip0_99_557)">
<path id="Vector" d="M27.4996 10.3303C30.9783 10.3303 34.3788 11.3618 37.2713 13.2945C40.1637 15.2271 42.4181 17.9741 43.7493 21.188C45.0805 24.4019 45.4289 27.9383 44.7502 31.3502C44.0715 34.762 42.3964 37.896 39.9366 40.3558C37.4768 42.8156 34.3428 44.4908 30.9309 45.1694C27.5191 45.8481 23.9826 45.4998 20.7687 44.1686C17.5548 42.8373 14.8079 40.5829 12.8752 37.6905C10.9426 34.7981 9.91102 31.3975 9.91102 27.9188C9.9163 23.2557 11.7711 18.785 15.0684 15.4877C18.3658 12.1903 22.8364 10.3355 27.4996 10.3303ZM27.4996 8.63312C23.6852 8.63312 19.9565 9.76421 16.785 11.8833C13.6135 14.0025 11.1416 17.0145 9.68191 20.5385C8.22222 24.0625 7.8403 27.9402 8.58445 31.6813C9.32859 35.4224 11.1654 38.8587 13.8625 41.5559C16.5597 44.253 19.9961 46.0898 23.7371 46.834C27.4782 47.5781 31.3559 47.1962 34.8799 45.7365C38.4039 44.2768 41.4159 41.8049 43.5351 38.6334C45.6542 35.4619 46.7853 31.7332 46.7853 27.9188C46.7853 22.8039 44.7534 17.8985 41.1366 14.2818C37.5199 10.665 32.6145 8.63312 27.4996 8.63312Z" fill="black"/>
<path id="Vector_2" d="M14.4621 31.2554C14.4507 31.1264 14.4709 30.9966 14.521 30.8772C14.5712 30.7578 14.6496 30.6524 14.7497 30.5702C14.8497 30.488 14.9683 30.4314 15.0951 30.4054C15.222 30.3793 15.3532 30.3846 15.4776 30.4207C19.3596 31.6501 23.4079 32.2741 27.4799 32.2709C31.551 32.2741 35.5983 31.6501 39.4793 30.4207C39.6037 30.386 39.7346 30.3818 39.861 30.4084C39.9873 30.435 40.1055 30.4916 40.2054 30.5735C40.3052 30.6553 40.384 30.76 40.4349 30.8787C40.4858 30.9974 40.5073 31.1266 40.4978 31.2554C40.1194 34.4236 38.5783 37.3385 36.1731 39.4352C33.768 41.5319 30.6701 42.6611 27.4799 42.6038C24.2904 42.6584 21.194 41.5283 18.7895 39.4321C16.3849 37.3359 14.8431 34.4226 14.4621 31.2554ZM37.9334 35.2422C38.491 34.2061 38.8757 33.086 39.0725 31.9259C35.3056 33.0201 31.4025 33.5745 27.4799 33.5728C23.5564 33.5743 19.6524 33.0199 15.8844 31.9259C16.0832 33.0854 16.4679 34.2052 17.0235 35.2421C20.4063 36.3094 23.9329 36.851 27.48 36.8483C31.0261 36.851 34.5517 36.3093 37.9334 35.2421V35.2422ZM19.526 23.6677C19.4796 23.0059 19.694 22.3522 20.1234 21.8464C20.5529 21.3407 21.1632 21.0231 21.8238 20.9617C22.4883 21.0179 23.104 21.3332 23.5381 21.8395C23.9722 22.3458 24.1898 23.0024 24.1441 23.6677C24.1902 24.3351 23.9733 24.9941 23.5396 25.5036C23.1059 26.013 22.49 26.3324 21.8238 26.3933C21.1615 26.3271 20.551 26.0055 20.122 25.4966C19.693 24.9877 19.4792 24.3316 19.526 23.6677ZM30.8157 23.6677C30.7702 22.9995 30.9904 22.3404 31.4282 21.8337C31.8661 21.3269 32.4864 21.0135 33.1541 20.9617C33.8149 21.0228 34.4256 21.3402 34.8553 21.846C35.2851 22.3517 35.4997 23.0057 35.4533 23.6677C35.5001 24.3319 35.2861 24.9881 34.8568 25.497C34.4274 26.006 33.8166 26.3275 33.1541 26.3933C32.4846 26.3367 31.8642 26.0192 31.4268 25.5093C30.9893 24.9994 30.7699 24.338 30.8158 23.6677H30.8157Z" fill="black"/>
</g>
<defs>
<clipPath id="clip0_99_557">
<rect width="54" height="54" fill="white" transform="translate(0.5 0.918823)"/>
</clipPath>
</defs>
</svg>
