<svg width="65" height="63" viewBox="0 0 65 63" fill="none" xmlns="http://www.w3.org/2000/svg">
<path id="Vector" d="M65 34.2391C65 30.4632 61.9626 27.3913 58.2292 27.3913H55.5208V23.2826C55.5208 10.4443 45.194 0 32.5 0C19.806 0 9.47917 10.4443 9.47917 23.2826V27.3913H6.77083C3.0374 27.3913 0 30.4632 0 34.2391V42.4565C0 46.2324 3.0374 49.3043 6.77083 49.3043H14.8958V27.3913H12.1875V23.2826C12.1875 11.9549 21.2997 2.73913 32.5 2.73913C43.7003 2.73913 52.8125 11.9549 52.8125 23.2826V27.3913H50.1042V49.3043H52.8125V56.1522C52.8125 58.4174 50.9898 60.2609 48.75 60.2609H35.2083V63H48.75C52.4834 63 55.5208 59.9281 55.5208 56.1522V49.3043H58.2292C61.9626 49.3043 65 46.2324 65 42.4565V34.2391ZM12.1875 46.5652H6.77083C4.53104 46.5652 2.70833 44.7218 2.70833 42.4565V34.2391C2.70833 31.9739 4.53104 30.1304 6.77083 30.1304H12.1875V46.5652ZM62.2917 42.4565C62.2917 44.7218 60.469 46.5652 58.2292 46.5652H52.8125V30.1304H58.2292C60.469 30.1304 62.2917 31.9739 62.2917 34.2391V42.4565Z" fill="white"/>
</svg>
