<svg width="45" height="45" viewBox="0 0 45 45" fill="none" xmlns="http://www.w3.org/2000/svg">
<g id="Icon">
<g id="Group&#229;&#164;&#135;&#228;&#187;&#189; 2">
<circle id="Oval 2" cx="22.5" cy="22.5" r="22.5" transform="rotate(-180 22.5 22.5)" fill="url(#paint0_linear_122_3509)"/>
<path id="Path" d="M14.0928 12.375H30.9979C31.4614 12.375 31.8977 12.5701 32.1976 12.9047C32.4975 13.2113 32.6884 13.6294 32.6884 14.1312V22.4105H24.9175L20.8548 26.5641L20.6367 26.4526C20.5276 26.4247 20.4186 26.3689 20.2822 26.3411C20.1732 26.3411 20.0641 26.3132 19.9278 26.3132C19.6824 26.3132 19.4642 26.3689 19.2461 26.4526C19.028 26.5362 18.8371 26.6756 18.6735 26.8428C18.5099 27.0101 18.3736 27.2331 18.2645 27.4561C18.1827 27.6513 18.1282 27.9021 18.1282 28.153C18.1282 28.4039 18.1827 28.6269 18.2645 28.8499C18.3736 29.0729 18.5099 29.2681 18.6735 29.4353C18.8371 29.6026 19.028 29.742 19.2461 29.8535C19.4642 29.9371 19.6824 29.965 19.9278 29.965C20.1732 29.965 20.3913 29.9371 20.6094 29.8535C20.8276 29.742 21.0184 29.6026 21.182 29.4353H21.2093C21.3729 29.2681 21.5092 29.0729 21.591 28.8499C21.6728 28.6269 21.7273 28.4039 21.7273 28.153C21.7273 27.9858 21.7001 27.8464 21.6728 27.6791L21.5092 27.261L21.3729 27.038L25.1902 23.1353H32.6884V31.4146C32.6884 31.8885 32.4975 32.3345 32.1976 32.6411C31.8977 32.9478 31.4614 33.1429 30.9979 33.1429H14.0928C13.602 33.1429 13.193 32.9478 12.8931 32.6411C12.5659 32.3345 12.375 31.8885 12.375 31.4146V23.1353H20.1732L24.2359 18.9817L24.454 19.0653C24.563 19.1211 24.6721 19.149 24.7812 19.1768C24.9175 19.2047 25.0266 19.2326 25.1629 19.2326C25.4083 19.2326 25.6264 19.1768 25.8446 19.0932C26.0627 18.9817 26.2536 18.8423 26.4172 18.6751C26.5808 18.5078 26.7171 18.3127 26.7989 18.0897C26.908 17.8666 26.9352 17.6436 26.9352 17.3927C26.9352 17.1419 26.908 16.9188 26.7989 16.6958C26.7171 16.4728 26.5808 16.2777 26.4172 16.1104V16.0826C26.2536 15.9153 26.0627 15.7759 25.8446 15.6923C25.6264 15.6087 25.4083 15.5529 25.1629 15.5529C24.9175 15.5529 24.6721 15.6087 24.4812 15.6923C24.2631 15.7759 24.045 15.9153 23.8814 16.0826C23.7178 16.2777 23.5815 16.4728 23.4997 16.6958C23.4179 16.891 23.3633 17.1419 23.3633 17.3927C23.3633 17.56 23.3906 17.6994 23.4179 17.8388C23.4451 18.006 23.4997 18.1454 23.5815 18.2848L23.7178 18.5078L19.8732 22.4105H12.375V14.1312C12.375 13.6294 12.5659 13.2113 12.8931 12.9047C13.193 12.5701 13.602 12.375 14.0928 12.375Z" fill="white"/>
</g>
</g>
<defs>
<linearGradient id="paint0_linear_122_3509" x1="-13.6595" y1="24.608" x2="28.6686" y2="66.1641" gradientUnits="userSpaceOnUse">
<stop stop-color="#0193F5"/>
<stop offset="1" stop-color="#B728FD"/>
</linearGradient>
</defs>
</svg>
