<svg width="46" height="45" viewBox="0 0 46 45" fill="none" xmlns="http://www.w3.org/2000/svg">
<g id="Group 19">
<circle id="Oval 2 Copy" cx="22.5488" cy="22.5" r="22.5" fill="url(#paint0_linear_122_3207)"/>
<path id="Rectangle 4" d="M30.8457 18.8867C31.4628 18.2883 32.4603 18.3483 33.0013 19.0163C33.478 19.605 33.4265 20.4603 32.8827 20.9876L16.2507 37.1133C15.6336 37.7117 14.6361 37.6516 14.0952 36.9836C13.6184 36.3949 13.6699 35.5397 14.2137 35.0124L30.8457 18.8867Z" fill="url(#paint1_linear_122_3207)"/>
<path id="Rectangle 4_2" d="M30.8457 10.8867C31.4628 10.2884 32.4603 10.3484 33.0013 11.0164C33.478 11.6051 33.4265 12.4603 32.8827 12.9876L16.2507 29.1133C15.6336 29.7117 14.6361 29.6517 14.0952 28.9837C13.6184 28.395 13.6699 27.5397 14.2137 27.0124L30.8457 10.8867Z" fill="url(#paint2_linear_122_3207)"/>
<path id="Rectangle 4_3" d="M22.7885 11.4029C23.4008 10.8155 24.3844 10.8772 24.9184 11.5366C25.3925 12.1221 25.339 12.9731 24.7955 13.4947L15.3084 22.5971C14.6962 23.1845 13.7125 23.1228 13.1785 22.4634C12.7044 21.8779 12.7579 21.0269 13.3015 20.5053L22.7885 11.4029Z" fill="url(#paint3_linear_122_3207)"/>
<path id="Rectangle 4_4" d="M15.3889 10.7287C15.948 10.1458 16.8916 10.1855 17.3999 10.8132C17.8254 11.3386 17.7935 12.0986 17.3254 12.5865L15.709 14.2713C15.1499 14.8541 14.2063 14.8145 13.698 14.1868C13.2725 13.6614 13.3044 12.9014 13.7725 12.4135L15.3889 10.7287Z" fill="url(#paint4_linear_122_3207)"/>
</g>
<defs>
<linearGradient id="paint0_linear_122_3207" x1="-9.95198" y1="25.8037" x2="25.0738" y2="56.1546" gradientUnits="userSpaceOnUse">
<stop stop-color="#74F79A"/>
<stop offset="1" stop-color="#028DBB"/>
</linearGradient>
<linearGradient id="paint1_linear_122_3207" x1="21.7797" y1="24.8944" x2="25.6995" y2="32.9679" gradientUnits="userSpaceOnUse">
<stop stop-color="white"/>
<stop offset="0.260255" stop-color="white"/>
<stop offset="1" stop-color="#32BAAD"/>
</linearGradient>
<linearGradient id="paint2_linear_122_3207" x1="26.565" y1="12.7233" x2="25.578" y2="31.5956" gradientUnits="userSpaceOnUse">
<stop stop-color="white"/>
<stop offset="0.244558" stop-color="#F9FDF5"/>
<stop offset="1" stop-color="#40C7A9"/>
</linearGradient>
<linearGradient id="paint3_linear_122_3207" x1="16.603" y1="16.4857" x2="18.753" y2="22.987" gradientUnits="userSpaceOnUse">
<stop stop-color="white"/>
<stop offset="1" stop-color="#4DD2A6"/>
</linearGradient>
<linearGradient id="paint4_linear_122_3207" x1="15.2909" y1="11.1856" x2="14.0357" y2="14.7579" gradientUnits="userSpaceOnUse">
<stop stop-color="white"/>
<stop offset="1" stop-color="#59DEA2"/>
</linearGradient>
</defs>
</svg>
